<!-- Original geometry. Shared paths carry a broad halo and the original fine stroke. -->
<svg xmlns="http://www.w3.org/2000/svg" class="summoning-geometry" viewBox="0 0 800 800" fill="none" aria-hidden="true">
 <defs>
  <radialGradient id="summon-light">
   <stop stop-color="#fff" stop-opacity=".22" />
   <stop offset="1" stop-color="#fff" stop-opacity="0" />
  </radialGradient>
  <linearGradient id="summon-reflection" x2="0" y2="1">
   <stop stop-color="#fff" stop-opacity=".25" />
   <stop offset="1" stop-color="#fff" stop-opacity="0" />
  </linearGradient>
  <path d="M400 12V172M400 540V788M112 186V414M688 186V414M146 258V370M654 258V370" id="glow-path-0" />
  <path d="m400 84 4 7-4 7-4-7Zm-288 174 4 7-4 7-4-7Zm576 0 4 7-4 7-4-7Zm-288 360 4 7-4 7-4-7Z" id="glow-path-1" />
  <circle cx="400" cy="352" r="172" id="glow-path-2" />
  <circle cx="400" cy="352" r="157" id="glow-path-3" />
  <path d="M235 292A176 176 0 0 1 565 292M235 412A176 176 0 0 0 565 412" id="glow-path-4" />
  <circle cx="400" cy="352" r="137" id="glow-path-5" />
  <path d="m400 167 5 7-5 7-5-7Zm0 356 5 7-5 7-5-7ZM215 352l7-5 7 5-7 5Zm356 0 7-5 7 5-7 5Z" id="glow-path-6" />
  <circle cx="287" cy="239" r="2" id="glow-path-7" />
  <circle cx="513" cy="239" r="2" id="glow-path-8" />
  <circle cx="287" cy="465" r="2" id="glow-path-9" />
  <circle cx="513" cy="465" r="2" id="glow-path-10" />
  <ellipse cx="400" cy="576" rx="85" ry="17" id="glow-path-11" />
  <ellipse cx="400" cy="585" rx="155" ry="35" id="glow-path-12" />
  <ellipse cx="400" cy="600" rx="245" ry="65" id="glow-path-13" />
  <ellipse cx="400" cy="625" rx="355" ry="105" id="glow-path-14" />
  <path d="M400 552 90 730M400 552 710 730M400 552 270 764M400 552 530 764M400 552V788" id="glow-path-15" />
  <ellipse cx="400" cy="576" rx="210" ry="44" id="glow-path-16" />
  <ellipse cx="400" cy="576" rx="210" ry="44" id="glow-path-17" />
  <ellipse cx="400" cy="576" rx="210" ry="44" id="glow-path-18" />
  <path d="M0 611Q100 591 200 610T400 610T600 610T800 610M0 620Q100 600 200 619T400 619T600 619T800 619" id="glow-path-19" />
  <path d="M0 650Q100 620 200 640T400 640T600 640T800 640M0 654Q100 624 200 644T400 644T600 644T800 644" id="glow-path-20" />
 </defs>
 <g stroke="#fff" stroke-width="1">
  <g class="summon-axes" opacity=".24">
   <g>
    <use href="#glow-path-0" class="geometry-halo" stroke-width="3" opacity=".5" fill="none" />
    <use href="#glow-path-0" />
   </g>
   <g class="axis-points" fill="#fff">
    <use href="#glow-path-1" class="geometry-halo" stroke-width="3" opacity=".5" fill="none" />
    <use href="#glow-path-1" />
   </g>
  </g>
  <g class="summon-orbit" opacity=".28">
   <g class="orbit-outer" stroke-dasharray="480 60">
    <use href="#glow-path-2" class="geometry-halo" stroke-width="3" opacity=".5" fill="none" />
    <use href="#glow-path-2" />
   </g>
   <g class="orbit-dots" stroke-dasharray="1 8" stroke-linecap="round">
    <use href="#glow-path-3" class="geometry-halo" stroke-width="3" opacity=".5" fill="none" />
    <use href="#glow-path-3" />
   </g>
   <g class="orbit-arcs" stroke-width="2">
    <use href="#glow-path-4" class="geometry-halo" stroke-width="3" opacity=".5" fill="none" />
    <use href="#glow-path-4" />
   </g>
   <g class="orbit-inner" stroke-dasharray="400 30" opacity=".38">
    <use href="#glow-path-5" class="geometry-halo" stroke-width="3" opacity=".5" fill="none" />
    <use href="#glow-path-5" />
   </g>
   <g class="orbit-ticks">
    <use href="#glow-path-6" class="geometry-halo" stroke-width="3" opacity=".5" fill="none" />
    <use href="#glow-path-6" />
   </g>
   <g fill="#fff">
    <g>
     <use href="#glow-path-7" class="geometry-halo" stroke-width="3" opacity=".5" fill="none" />
     <use href="#glow-path-7" />
    </g>
    <g>
     <use href="#glow-path-8" class="geometry-halo" stroke-width="3" opacity=".5" fill="none" />
     <use href="#glow-path-8" />
    </g>
    <g>
     <use href="#glow-path-9" class="geometry-halo" stroke-width="3" opacity=".5" fill="none" />
     <use href="#glow-path-9" />
    </g>
    <g>
     <use href="#glow-path-10" class="geometry-halo" stroke-width="3" opacity=".5" fill="none" />
     <use href="#glow-path-10" />
    </g>
   </g>
  </g>
  <g opacity=".1">
   <g>
    <use href="#glow-path-11" class="geometry-halo" stroke-width="3" opacity=".5" fill="none" />
    <use href="#glow-path-11" />
   </g>
   <g>
    <use href="#glow-path-12" class="geometry-halo" stroke-width="3" opacity=".5" fill="none" />
    <use href="#glow-path-12" />
   </g>
   <g opacity=".7">
    <use href="#glow-path-13" class="geometry-halo" stroke-width="3" opacity=".5" fill="none" />
    <use href="#glow-path-13" />
   </g>
   <g opacity=".45">
    <use href="#glow-path-14" class="geometry-halo" stroke-width="3" opacity=".5" fill="none" />
    <use href="#glow-path-14" />
   </g>
   <g opacity=".65">
    <use href="#glow-path-15" class="geometry-halo" stroke-width="3" opacity=".5" fill="none" />
    <use href="#glow-path-15" />
   </g>
  </g>
 </g>
 <g stroke="#fff" fill="none">
  <g class="floor-ripple">
   <use href="#glow-path-16" class="geometry-halo" stroke-width="3" opacity=".5" fill="none" />
   <use href="#glow-path-16" />
  </g>
  <g class="floor-ripple two">
   <use href="#glow-path-17" class="geometry-halo" stroke-width="3" opacity=".5" fill="none" />
   <use href="#glow-path-17" />
  </g>
  <g class="floor-ripple three">
   <use href="#glow-path-18" class="geometry-halo" stroke-width="3" opacity=".5" fill="none" />
   <use href="#glow-path-18" />
  </g>
  <g class="water-line" stroke-width=".6">
   <use href="#glow-path-19" class="geometry-halo" stroke-width="3" opacity=".5" fill="none" />
   <use href="#glow-path-19" />
  </g>
  <g class="water-line second" stroke-width=".6">
   <use href="#glow-path-20" class="geometry-halo" stroke-width="3" opacity=".5" fill="none" />
   <use href="#glow-path-20" />
  </g>
 </g>
 <ellipse cx="400" cy="352" rx="48" ry="64" fill="url(#summon-light)" />
 <path class="orbit-star" d="m400 320 4 27 17 5-17 5-4 27-4-27-17-5 17-5Z" fill="#fff" opacity=".65" />
 <path d="m400 551 9 188h-18Z" fill="url(#summon-reflection)" />
</svg>
